:FULLY-SPECIFIED
:FORCE-ALL-JOINTS-BE-3DOF
:DEGREES
29
root 0.502306 17.7535 -20.6882 3.26239 -9.67227 1.43708
lfemur 4.42226 9.80626 -24.1555
ltibia 77.3268 -0 0
lfoot 24.8186 4.11471 0.143778
ltoes -6.51866 0 0
rfemur -26.3002 2.10307 25.0384
rtibia 35.4852 -0 0
rfoot -0.552656 2.96705 -0.103396
rtoes 9.96866 -0 0
lowerback 15.8998 -1.40082 -1.99707
upperback 1.47102 -2.21121 0.0090842
thorax -7.26562 -1.01096 1.62118
lowerneck -4.02129 3.14709 -1.3869
upperneck -11.2842 4.15134 -0.789851
head -2.90927 2.13108 -0.063012
lclavicle 2.43672e-16 6.75868e-15 -1.27311e-31
lhumerus -32.1109 -19.5474 92.9696
lradius 107.797 -0 0
lwrist 30.1588 0 0
lhand -38.8092 10.0259 -0.00248564
lfingers 7.12502 -0 0
lthumb -11.8196 39.6717 -0.00227467
rclavicle 2.43672e-16 6.75868e-15 -1.27311e-31
rhumerus -53.3065 3.70076 -84.913
rradius 91.8174 -0 0
rwrist -4.17865 0 0
rhand -44.3782 37.9855 -0.00966517
rfingers 7.12502 -0 0
rthumb -17.1848 8.73156 -0.0110245
30
root 0.516968 17.7764 -20.1332 3.21337 -10.1027 1.41797
lfemur 4.8503 10.2033 -23.9787
ltibia 78.6174 -0 0
lfoot 26.3638 4.23679 0.0991162
ltoes -6.35082 0 0
rfemur -25.9314 2.29405 25.3541
rtibia 32.887 -0 0
rfoot -1.03135 3.26025 -0.0713778
rtoes 10.0202 -0 0
lowerback 15.7797 -1.40381 -1.88717
upperback 1.46307 -2.18682 0.0870628
thorax -7.21055 -1.00333 1.63363
lowerneck -4.0569 3.26412 -1.39024
upperneck -11.2317 4.29375 -0.962962
head -2.88299 2.20665 -0.121312
lclavicle 5.93148e-16 7.25564e-15 -8.79054e-32
lhumerus -32.8893 -19.4414 93.3169
lradius 107.58 -0 0
lwrist 30.2537 0 0
lhand -38.867 10.0846 -0.00171627
lfingers 7.12502 -0 0
lthumb -11.8753 39.7274 -0.0015706
rclavicle 5.93148e-16 7.25564e-15 -8.79054e-32
rhumerus -53.2649 3.5316 -84.7942
rradius 92.2009 -0 0
rwrist -4.29958 0 0
rhand -44.2177 37.9034 -0.00667343
rfingers 7.12502 -0 0
rthumb -17.0304 8.63419 -0.007612
31
root 0.531629 17.7994 -19.5782 3.16444 -10.5331 1.3992
lfemur 5.28012 10.599 -23.7986
ltibia 79.908 -0 0
lfoot 27.909 4.35762 0.0511784
ltoes -6.18297 0 0
rfemur -25.5614 2.48299 25.671
rtibia 30.2887 -0 0
rfoot -1.50986 3.55317 -0.0369113
rtoes 10.0717 -0 0
lowerback 15.6597 -1.40657 -1.77726
upperback 1.45515 -2.16242 0.165037
thorax -7.15548 -0.995707 1.64609
lowerneck -4.09253 3.38114 -1.39366
upperneck -11.1797 4.43632 -1.13597
head -2.85678 2.28225 -0.17958
lclavicle 9.42624e-16 7.7526e-15 -4.54683e-32
lhumerus -33.6666 -19.3311 93.6624
lradius 107.364 -0 0
lwrist 30.3486 0 0
lhand -38.9247 10.1433 -0.00088772
lfingers 7.12502 -0 0
lthumb -11.931 39.7831 -0.000812375
rclavicle 9.42624e-16 7.7526e-15 -4.54683e-32
rhumerus -53.2235 3.36235 -84.6756
rradius 92.5845 -0 0
rwrist -4.42051 0 0
rhand -44.0571 37.8214 -0.00345169
rfingers 7.12502 -0 0
rthumb -16.8761 8.53684 -0.00393715
32
root 0.546291 17.8223 -19.0232 3.11557 -10.9636 1.38078
lfemur 5.71178 10.9933 -23.6153
ltibia 81.1986 0 0
lfoot 29.4541 4.47712 0
ltoes -6.01512 0 0
rfemur -25.1904 2.66988 25.9892
rtibia 27.6905 0 0
rfoot -1.9882 3.84579 0
rtoes 10.1232 0 0
lowerback 15.5396 -1.4091 -1.66734
upperback 1.44726 -2.13801 0.243006
thorax -7.10041 -0.988096 1.65856
lowerneck -4.12817 3.49816 -1.39715
upperneck -11.1281 4.57904 -1.30889
head -2.83065 2.35788 -0.237817
lclavicle 1.2921e-15 8.24956e-15 0
lhumerus -34.4426 -19.2163 94.0061
lradius 107.147 0 0
lwrist 30.4435 0 0
lhand -38.9825 10.202 0
lfingers 7.12502 0 0
lthumb -11.9867 39.8388 0
rclavicle 1.2921e-15 8.24956e-15 0
rhumerus -53.1826 3.19302 -84.5572
rradius 92.968 0 0
rwrist -4.54144 0 0
rhand -43.8966 37.7393 0
rfingers 7.12502 0 0
rthumb -16.7217 8.43949 0
33
root 0.54864 17.8575 -18.491 3.21438 -10.7237 1.085
lfemur 4.30459 10.1988 -23.296
ltibia 79.7719 -0 0
lfoot 28.8749 4.21168 0.0406255
ltoes -6.34334 0 0
rfemur -23.5592 2.98245 26.1808
rtibia 27.3343 -0 0
rfoot -0.847585 3.62046 -0.0694514
rtoes 10.4334 -0 0
lowerback 15.4413 -1.32017 -1.36503
upperback 1.42418 -1.9654 0.253852
thorax -7.06 -0.913757 1.46623
lowerneck -4.24787 3.35963 -1.37861
upperneck -10.97 4.4045 -1.218
head -2.7598 2.26757 -0.212806
lclavicle 9.12165e-16 7.82955e-15 -4.17773e-32
lhumerus -35.3721 -18.6911 94.0281
lradius 107.048 -0 0
lwrist 30.2999 0 0
lhand -38.9343 10.2263 0.000306552
lfingers 7.12502 -0 0
lthumb -11.9403 39.8656 0.000326481
rclavicle 9.12165e-16 7.82955e-15 -4.17773e-32
rhumerus -52.444 3.85101 -84.7994
rradius 93.546 -0 0
rwrist -4.44998 0 0
rhand -43.889 37.6896 -9.92261e-05
rfingers 7.12502 -0 0
rthumb -16.7144 8.38919 -9.67194e-05
34
root 0.55099 17.8927 -17.9589 3.31186 -10.4833 0.789869
lfemur 2.89629 9.41222 -22.9578
ltibia 78.3452 -0 0
lfoot 28.2956 3.94585 0.0785655
ltoes -6.67156 0 0
rfemur -21.9264 3.28944 26.3814
rtibia 26.978 -0 0
rfoot 0.293297 3.3938 -0.134403
rtoes 10.7437 -0 0
lowerback 15.3435 -1.23071 -1.06289
upperback 1.40113 -1.7928 0.264628
thorax -7.01985 -0.839283 1.27395
lowerneck -4.3676 3.22113 -1.35979
upperneck -10.8123 4.22971 -1.12762
head -2.689 2.17722 -0.187908
lclavicle 5.32229e-16 7.40953e-15 -8.07695e-32
lhumerus -36.2986 -18.1656 94.0411
lradius 106.949 -0 0
lwrist 30.1563 0 0
lhand -38.8862 10.2506 0.000592669
lfingers 7.12502 -0 0
lthumb -11.8938 39.8925 0.000631199
rclavicle 5.32229e-16 7.40953e-15 -8.07695e-32
rhumerus -51.7075 4.51206 -85.0333
rradius 94.1241 -0 0
rwrist -4.35851 0 0
rhand -43.8813 37.6399 -0.000191838
rfingers 7.12502 -0 0
rthumb -16.707 8.3389 -0.000186991
35
root 0.553339 17.9278 -17.4267 3.408 -10.2425 0.495383
lfemur 1.48636 8.63409 -22.6009
ltibia 76.9186 -0 0
lfoot 27.7161 3.67965 0.113815
ltoes -6.99978 0 0
rfemur -20.2921 3.59059 26.5907
rtibia 26.6218 -0 0
rfoot 1.43443 3.16589 -0.194828
rtoes 11.0539 -0 0
lowerback 15.2462 -1.14075 -0.760908
upperback 1.37812 -1.62018 0.275333
thorax -6.97995 -0.764675 1.08173
lowerneck -4.48736 3.08268 -1.34067
upperneck -10.6549 4.05468 -1.03774
head -2.61824 2.08685 -0.163123
lclavicle 1.52294e-16 6.98952e-15 -1.16977e-31
lhumerus -37.2223 -17.6399 94.0451
lradius 106.85 -0 0
lwrist 30.0127 0 0
lhand -38.838 10.2749 0.00085835
lfingers 7.12502 -0 0
lthumb -11.8474 39.9193 0.000914151
rclavicle 1.52294e-16 6.98952e-15 -1.16977e-31
rhumerus -50.973 5.17606 -85.2589
rradius 94.7021 -0 0
rwrist -4.26705 0 0
rhand -43.8737 37.5903 -0.000277834
rfingers 7.12502 -0 0
rthumb -16.6997 8.2886 -0.000270815
36
root 0.555689 17.963 -16.8945 3.50281 -10.0011 0.201528
lfemur 0.0743293 7.86487 -22.2254
ltibia 75.4919 -0 0
lfoot 27.1364 3.4131 0.14637
ltoes -7.32799 0 0
rfemur -18.6562 3.88567 26.8085
rtibia 26.2655 -0 0
rfoot 2.5758 2.93681 -0.250702
rtoes 11.3642 -0 0
lowerback 15.1494 -1.05027 -0.45909
upperback 1.35515 -1.44756 0.285969
thorax -6.94029 -0.689933 0.889558
lowerneck -4.60715 2.94427 -1.32127
upperneck -10.4977 3.8794 -0.948363
head -2.54752 1.99645 -0.138452
lclavicle -2.27642e-16 6.56951e-15 -1.50398e-31
lhumerus -38.1432 -17.1143 94.0403
lradius 106.752 -0 0
lwrist 29.8692 0 0
lhand -38.7899 10.2992 0.00110359
lfingers 7.12502 -0 0
lthumb -11.8009 39.9462 0.00117534
rclavicle -2.27642e-16 6.56951e-15 -1.50398e-31
rhumerus -50.2404 5.84287 -85.4761
rradius 95.2801 -0 0
rwrist -4.17559 0 0
rhand -43.8661 37.5406 -0.000357216
rfingers 7.12502 -0 0
rthumb -16.6923 8.2383 -0.000348192
